<mxfile host="Electron" agent="Mozilla/5.0 (Windows NT 10.0; Win64; x64) AppleWebKit/537.36 (KHTML, like Gecko) draw.io/27.0.9 Chrome/134.0.6998.205 Electron/35.4.0 Safari/537.36" version="27.0.9">
  <diagram id="R2lEEEUBdFMjLlhIrx00" name="Page-1">
    <mxGraphModel dx="1209" dy="719" grid="1" gridSize="10" guides="1" tooltips="1" connect="1" arrows="1" fold="1" page="1" pageScale="1" pageWidth="850" pageHeight="1100" math="0" shadow="0" extFonts="Permanent Marker^https://fonts.googleapis.com/css?family=Permanent+Marker">
      <root>
        <mxCell id="0" />
        <mxCell id="1" parent="0" />
        <mxCell id="eoBU5oEmDof-OM64dEQ1-1" value="faculty" style="rounded=0;whiteSpace=wrap;html=1;" parent="1" vertex="1">
          <mxGeometry x="379" y="398" width="120" height="60" as="geometry" />
        </mxCell>
        <mxCell id="eoBU5oEmDof-OM64dEQ1-2" value="dean" style="rounded=0;whiteSpace=wrap;html=1;" parent="1" vertex="1">
          <mxGeometry x="859" y="398" width="120" height="60" as="geometry" />
        </mxCell>
        <mxCell id="_V5Ea4BD2LlQVcHZgfT1-41" style="edgeStyle=orthogonalEdgeStyle;rounded=0;orthogonalLoop=1;jettySize=auto;html=1;exitX=0;exitY=0;exitDx=0;exitDy=0;entryX=1;entryY=1;entryDx=0;entryDy=0;" edge="1" parent="1" source="iPAJIp2zuQb5tWjRLMaW-2" target="_V5Ea4BD2LlQVcHZgfT1-39">
          <mxGeometry relative="1" as="geometry" />
        </mxCell>
        <mxCell id="iPAJIp2zuQb5tWjRLMaW-2" value="department" style="rounded=0;whiteSpace=wrap;html=1;" parent="1" vertex="1">
          <mxGeometry x="369" y="658" width="120" height="60" as="geometry" />
        </mxCell>
        <mxCell id="_V5Ea4BD2LlQVcHZgfT1-14" style="edgeStyle=orthogonalEdgeStyle;rounded=0;orthogonalLoop=1;jettySize=auto;html=1;entryX=1;entryY=0;entryDx=0;entryDy=0;" edge="1" parent="1" target="_V5Ea4BD2LlQVcHZgfT1-11">
          <mxGeometry relative="1" as="geometry">
            <mxPoint x="799" y="969" as="sourcePoint" />
          </mxGeometry>
        </mxCell>
        <mxCell id="_V5Ea4BD2LlQVcHZgfT1-16" value="" style="edgeStyle=orthogonalEdgeStyle;rounded=0;orthogonalLoop=1;jettySize=auto;html=1;exitX=0.5;exitY=1;exitDx=0;exitDy=0;" edge="1" parent="1" source="iPAJIp2zuQb5tWjRLMaW-3" target="_V5Ea4BD2LlQVcHZgfT1-9">
          <mxGeometry relative="1" as="geometry">
            <mxPoint x="859" y="999" as="sourcePoint" />
          </mxGeometry>
        </mxCell>
        <mxCell id="_V5Ea4BD2LlQVcHZgfT1-17" style="edgeStyle=orthogonalEdgeStyle;rounded=0;orthogonalLoop=1;jettySize=auto;html=1;exitX=0.75;exitY=1;exitDx=0;exitDy=0;" edge="1" parent="1" source="iPAJIp2zuQb5tWjRLMaW-3" target="_V5Ea4BD2LlQVcHZgfT1-10">
          <mxGeometry relative="1" as="geometry">
            <mxPoint x="889" y="999" as="sourcePoint" />
          </mxGeometry>
        </mxCell>
        <mxCell id="_V5Ea4BD2LlQVcHZgfT1-18" style="edgeStyle=orthogonalEdgeStyle;rounded=0;orthogonalLoop=1;jettySize=auto;html=1;exitX=0.917;exitY=0.967;exitDx=0;exitDy=0;entryX=0;entryY=0.5;entryDx=0;entryDy=0;exitPerimeter=0;" edge="1" parent="1" source="iPAJIp2zuQb5tWjRLMaW-3" target="_V5Ea4BD2LlQVcHZgfT1-12">
          <mxGeometry relative="1" as="geometry">
            <mxPoint x="919" y="984" as="sourcePoint" />
          </mxGeometry>
        </mxCell>
        <mxCell id="iPAJIp2zuQb5tWjRLMaW-3" value="course" style="rounded=0;whiteSpace=wrap;html=1;" parent="1" vertex="1">
          <mxGeometry x="799" y="920" width="120" height="60" as="geometry" />
        </mxCell>
        <mxCell id="_V5Ea4BD2LlQVcHZgfT1-49" style="edgeStyle=orthogonalEdgeStyle;rounded=0;orthogonalLoop=1;jettySize=auto;html=1;exitX=0.5;exitY=0;exitDx=0;exitDy=0;" edge="1" parent="1" source="iPAJIp2zuQb5tWjRLMaW-4" target="_V5Ea4BD2LlQVcHZgfT1-44">
          <mxGeometry relative="1" as="geometry" />
        </mxCell>
        <mxCell id="_V5Ea4BD2LlQVcHZgfT1-50" style="edgeStyle=orthogonalEdgeStyle;rounded=0;orthogonalLoop=1;jettySize=auto;html=1;exitX=0.75;exitY=0;exitDx=0;exitDy=0;entryX=0;entryY=1;entryDx=0;entryDy=0;" edge="1" parent="1" source="iPAJIp2zuQb5tWjRLMaW-4" target="_V5Ea4BD2LlQVcHZgfT1-46">
          <mxGeometry relative="1" as="geometry" />
        </mxCell>
        <mxCell id="iPAJIp2zuQb5tWjRLMaW-4" value="professor" style="rounded=0;whiteSpace=wrap;html=1;" parent="1" vertex="1">
          <mxGeometry x="802" y="658" width="120" height="60" as="geometry" />
        </mxCell>
        <mxCell id="_V5Ea4BD2LlQVcHZgfT1-36" style="edgeStyle=orthogonalEdgeStyle;rounded=0;orthogonalLoop=1;jettySize=auto;html=1;exitX=0;exitY=0;exitDx=0;exitDy=0;entryX=1;entryY=1;entryDx=0;entryDy=0;" edge="1" parent="1" source="iPAJIp2zuQb5tWjRLMaW-5" target="_V5Ea4BD2LlQVcHZgfT1-35">
          <mxGeometry relative="1" as="geometry" />
        </mxCell>
        <mxCell id="_V5Ea4BD2LlQVcHZgfT1-37" style="edgeStyle=orthogonalEdgeStyle;rounded=0;orthogonalLoop=1;jettySize=auto;html=1;exitX=0;exitY=0.5;exitDx=0;exitDy=0;" edge="1" parent="1" source="iPAJIp2zuQb5tWjRLMaW-5" target="_V5Ea4BD2LlQVcHZgfT1-33">
          <mxGeometry relative="1" as="geometry" />
        </mxCell>
        <mxCell id="_V5Ea4BD2LlQVcHZgfT1-38" style="edgeStyle=orthogonalEdgeStyle;rounded=0;orthogonalLoop=1;jettySize=auto;html=1;exitX=1;exitY=0.5;exitDx=0;exitDy=0;entryX=0;entryY=0.5;entryDx=0;entryDy=0;" edge="1" parent="1" source="iPAJIp2zuQb5tWjRLMaW-5" target="_V5Ea4BD2LlQVcHZgfT1-34">
          <mxGeometry relative="1" as="geometry" />
        </mxCell>
        <mxCell id="iPAJIp2zuQb5tWjRLMaW-5" value="student" style="rounded=0;whiteSpace=wrap;html=1;" parent="1" vertex="1">
          <mxGeometry x="1169" y="778" width="120" height="60" as="geometry" />
        </mxCell>
        <mxCell id="iPAJIp2zuQb5tWjRLMaW-6" value="administrate" style="rhombus;whiteSpace=wrap;html=1;" parent="1" vertex="1">
          <mxGeometry x="649" y="388" width="100" height="80" as="geometry" />
        </mxCell>
        <mxCell id="iPAJIp2zuQb5tWjRLMaW-7" value="" style="endArrow=none;html=1;rounded=0;exitX=0.011;exitY=0.5;exitDx=0;exitDy=0;exitPerimeter=0;entryX=1;entryY=0.5;entryDx=0;entryDy=0;" parent="1" source="eoBU5oEmDof-OM64dEQ1-2" target="iPAJIp2zuQb5tWjRLMaW-6" edge="1">
          <mxGeometry relative="1" as="geometry">
            <mxPoint x="729" y="428" as="sourcePoint" />
            <mxPoint x="739" y="468" as="targetPoint" />
          </mxGeometry>
        </mxCell>
        <mxCell id="iPAJIp2zuQb5tWjRLMaW-8" value="1" style="resizable=0;html=1;whiteSpace=wrap;align=right;verticalAlign=bottom;" parent="iPAJIp2zuQb5tWjRLMaW-7" connectable="0" vertex="1">
          <mxGeometry x="1" relative="1" as="geometry" />
        </mxCell>
        <mxCell id="iPAJIp2zuQb5tWjRLMaW-11" value="" style="shape=link;html=1;rounded=0;" parent="1" edge="1">
          <mxGeometry relative="1" as="geometry">
            <mxPoint x="499" y="428" as="sourcePoint" />
            <mxPoint x="649" y="428" as="targetPoint" />
          </mxGeometry>
        </mxCell>
        <mxCell id="iPAJIp2zuQb5tWjRLMaW-12" value="1" style="resizable=0;html=1;whiteSpace=wrap;align=right;verticalAlign=bottom;" parent="iPAJIp2zuQb5tWjRLMaW-11" connectable="0" vertex="1">
          <mxGeometry x="1" relative="1" as="geometry" />
        </mxCell>
        <mxCell id="iPAJIp2zuQb5tWjRLMaW-13" value="compose" style="shape=rhombus;perimeter=rhombusPerimeter;whiteSpace=wrap;html=1;align=center;" parent="1" vertex="1">
          <mxGeometry x="379" y="538" width="120" height="60" as="geometry" />
        </mxCell>
        <mxCell id="iPAJIp2zuQb5tWjRLMaW-16" value="" style="endArrow=none;html=1;rounded=0;exitX=0.5;exitY=1;exitDx=0;exitDy=0;entryX=0.5;entryY=0;entryDx=0;entryDy=0;" parent="1" source="iPAJIp2zuQb5tWjRLMaW-13" target="iPAJIp2zuQb5tWjRLMaW-2" edge="1">
          <mxGeometry relative="1" as="geometry">
            <mxPoint x="379" y="608" as="sourcePoint" />
            <mxPoint x="539" y="608" as="targetPoint" />
          </mxGeometry>
        </mxCell>
        <mxCell id="iPAJIp2zuQb5tWjRLMaW-17" value="N" style="resizable=0;html=1;whiteSpace=wrap;align=right;verticalAlign=bottom;" parent="iPAJIp2zuQb5tWjRLMaW-16" connectable="0" vertex="1">
          <mxGeometry x="1" relative="1" as="geometry" />
        </mxCell>
        <mxCell id="iPAJIp2zuQb5tWjRLMaW-18" value="offers" style="shape=rhombus;perimeter=rhombusPerimeter;whiteSpace=wrap;html=1;align=center;" parent="1" vertex="1">
          <mxGeometry x="369" y="916" width="120" height="60" as="geometry" />
        </mxCell>
        <mxCell id="iPAJIp2zuQb5tWjRLMaW-21" value="" style="endArrow=none;html=1;rounded=0;exitX=1;exitY=0.5;exitDx=0;exitDy=0;entryX=0.001;entryY=0.411;entryDx=0;entryDy=0;entryPerimeter=0;" parent="1" source="iPAJIp2zuQb5tWjRLMaW-18" target="iPAJIp2zuQb5tWjRLMaW-3" edge="1">
          <mxGeometry relative="1" as="geometry">
            <mxPoint x="499" y="919" as="sourcePoint" />
            <mxPoint x="789" y="949" as="targetPoint" />
          </mxGeometry>
        </mxCell>
        <mxCell id="iPAJIp2zuQb5tWjRLMaW-22" value="N" style="resizable=0;html=1;whiteSpace=wrap;align=right;verticalAlign=bottom;" parent="iPAJIp2zuQb5tWjRLMaW-21" connectable="0" vertex="1">
          <mxGeometry x="1" relative="1" as="geometry">
            <mxPoint y="19" as="offset" />
          </mxGeometry>
        </mxCell>
        <mxCell id="iPAJIp2zuQb5tWjRLMaW-23" value="employs" style="shape=rhombus;perimeter=rhombusPerimeter;whiteSpace=wrap;html=1;align=center;" parent="1" vertex="1">
          <mxGeometry x="589" y="712" width="120" height="76" as="geometry" />
        </mxCell>
        <mxCell id="iPAJIp2zuQb5tWjRLMaW-32" value="" style="endArrow=none;html=1;rounded=0;entryX=1;entryY=0.5;entryDx=0;entryDy=0;exitX=0;exitY=0.5;exitDx=0;exitDy=0;" parent="1" source="iPAJIp2zuQb5tWjRLMaW-4" edge="1" target="iPAJIp2zuQb5tWjRLMaW-23">
          <mxGeometry relative="1" as="geometry">
            <mxPoint x="709" y="668" as="sourcePoint" />
            <mxPoint x="802" y="700.0000000000001" as="targetPoint" />
          </mxGeometry>
        </mxCell>
        <mxCell id="iPAJIp2zuQb5tWjRLMaW-33" value="N" style="resizable=0;html=1;whiteSpace=wrap;align=right;verticalAlign=bottom;" parent="iPAJIp2zuQb5tWjRLMaW-32" connectable="0" vertex="1">
          <mxGeometry x="1" relative="1" as="geometry" />
        </mxCell>
        <mxCell id="iPAJIp2zuQb5tWjRLMaW-34" value="" style="endArrow=none;html=1;rounded=0;exitX=1;exitY=0.5;exitDx=0;exitDy=0;entryX=0;entryY=0.5;entryDx=0;entryDy=0;" parent="1" target="iPAJIp2zuQb5tWjRLMaW-23" edge="1">
          <mxGeometry relative="1" as="geometry">
            <mxPoint x="492" y="688" as="sourcePoint" />
            <mxPoint x="622" y="792" as="targetPoint" />
          </mxGeometry>
        </mxCell>
        <mxCell id="iPAJIp2zuQb5tWjRLMaW-35" value="1" style="resizable=0;html=1;whiteSpace=wrap;align=right;verticalAlign=bottom;" parent="iPAJIp2zuQb5tWjRLMaW-34" connectable="0" vertex="1">
          <mxGeometry x="1" relative="1" as="geometry" />
        </mxCell>
        <mxCell id="iPAJIp2zuQb5tWjRLMaW-36" value="chair" style="shape=rhombus;perimeter=rhombusPerimeter;whiteSpace=wrap;html=1;align=center;" parent="1" vertex="1">
          <mxGeometry x="579" y="568" width="120" height="70" as="geometry" />
        </mxCell>
        <mxCell id="iPAJIp2zuQb5tWjRLMaW-37" value="" style="shape=link;html=1;rounded=0;exitX=1.01;exitY=0.383;exitDx=0;exitDy=0;exitPerimeter=0;entryX=0;entryY=0.5;entryDx=0;entryDy=0;" parent="1" target="iPAJIp2zuQb5tWjRLMaW-36" edge="1">
          <mxGeometry relative="1" as="geometry">
            <mxPoint x="493.20000000000005" y="680.98" as="sourcePoint" />
            <mxPoint x="682" y="658" as="targetPoint" />
          </mxGeometry>
        </mxCell>
        <mxCell id="iPAJIp2zuQb5tWjRLMaW-38" value="1" style="resizable=0;html=1;whiteSpace=wrap;align=right;verticalAlign=bottom;" parent="iPAJIp2zuQb5tWjRLMaW-37" connectable="0" vertex="1">
          <mxGeometry x="1" relative="1" as="geometry" />
        </mxCell>
        <mxCell id="iPAJIp2zuQb5tWjRLMaW-39" value="" style="endArrow=none;html=1;rounded=0;entryX=1;entryY=0.5;entryDx=0;entryDy=0;exitX=0.002;exitY=0.39;exitDx=0;exitDy=0;exitPerimeter=0;" parent="1" source="iPAJIp2zuQb5tWjRLMaW-4" target="iPAJIp2zuQb5tWjRLMaW-36" edge="1">
          <mxGeometry relative="1" as="geometry">
            <mxPoint x="799" y="688" as="sourcePoint" />
            <mxPoint x="872" y="588" as="targetPoint" />
          </mxGeometry>
        </mxCell>
        <mxCell id="iPAJIp2zuQb5tWjRLMaW-40" value="1" style="resizable=0;html=1;whiteSpace=wrap;align=right;verticalAlign=bottom;" parent="iPAJIp2zuQb5tWjRLMaW-39" connectable="0" vertex="1">
          <mxGeometry x="1" relative="1" as="geometry" />
        </mxCell>
        <mxCell id="iPAJIp2zuQb5tWjRLMaW-41" value="teach" style="shape=rhombus;perimeter=rhombusPerimeter;whiteSpace=wrap;html=1;align=center;" parent="1" vertex="1">
          <mxGeometry x="802" y="788" width="120" height="60" as="geometry" />
        </mxCell>
        <mxCell id="iPAJIp2zuQb5tWjRLMaW-45" value="" style="shape=link;html=1;rounded=0;entryX=0.5;entryY=0;entryDx=0;entryDy=0;exitX=0.5;exitY=1;exitDx=0;exitDy=0;" parent="1" source="iPAJIp2zuQb5tWjRLMaW-41" edge="1">
          <mxGeometry relative="1" as="geometry">
            <mxPoint x="602" y="848" as="sourcePoint" />
            <mxPoint x="862" y="920" as="targetPoint" />
          </mxGeometry>
        </mxCell>
        <mxCell id="iPAJIp2zuQb5tWjRLMaW-46" value="N" style="resizable=0;html=1;whiteSpace=wrap;align=right;verticalAlign=bottom;" parent="iPAJIp2zuQb5tWjRLMaW-45" connectable="0" vertex="1">
          <mxGeometry x="1" relative="1" as="geometry" />
        </mxCell>
        <mxCell id="iPAJIp2zuQb5tWjRLMaW-47" value="" style="endArrow=none;html=1;rounded=0;entryX=0.5;entryY=1;entryDx=0;entryDy=0;exitX=0.5;exitY=0;exitDx=0;exitDy=0;" parent="1" source="iPAJIp2zuQb5tWjRLMaW-41" target="iPAJIp2zuQb5tWjRLMaW-4" edge="1">
          <mxGeometry relative="1" as="geometry">
            <mxPoint x="852" y="748" as="sourcePoint" />
            <mxPoint x="1012" y="748" as="targetPoint" />
          </mxGeometry>
        </mxCell>
        <mxCell id="iPAJIp2zuQb5tWjRLMaW-48" value="N" style="resizable=0;html=1;whiteSpace=wrap;align=right;verticalAlign=bottom;" parent="iPAJIp2zuQb5tWjRLMaW-47" connectable="0" vertex="1">
          <mxGeometry x="1" relative="1" as="geometry" />
        </mxCell>
        <mxCell id="_V5Ea4BD2LlQVcHZgfT1-28" style="edgeStyle=orthogonalEdgeStyle;rounded=0;orthogonalLoop=1;jettySize=auto;html=1;exitX=1;exitY=1;exitDx=0;exitDy=0;" edge="1" parent="1" source="iPAJIp2zuQb5tWjRLMaW-49" target="_V5Ea4BD2LlQVcHZgfT1-26">
          <mxGeometry relative="1" as="geometry" />
        </mxCell>
        <mxCell id="_V5Ea4BD2LlQVcHZgfT1-31" style="edgeStyle=orthogonalEdgeStyle;rounded=0;orthogonalLoop=1;jettySize=auto;html=1;exitX=1;exitY=0;exitDx=0;exitDy=0;entryX=0;entryY=1;entryDx=0;entryDy=0;" edge="1" parent="1" source="iPAJIp2zuQb5tWjRLMaW-49" target="_V5Ea4BD2LlQVcHZgfT1-25">
          <mxGeometry relative="1" as="geometry" />
        </mxCell>
        <mxCell id="iPAJIp2zuQb5tWjRLMaW-49" value="enroll" style="shape=rhombus;perimeter=rhombusPerimeter;whiteSpace=wrap;html=1;align=center;" parent="1" vertex="1">
          <mxGeometry x="1169" y="921" width="120" height="60" as="geometry" />
        </mxCell>
        <mxCell id="iPAJIp2zuQb5tWjRLMaW-50" value="advise" style="shape=rhombus;perimeter=rhombusPerimeter;whiteSpace=wrap;html=1;align=center;" parent="1" vertex="1">
          <mxGeometry x="1169" y="658" width="120" height="60" as="geometry" />
        </mxCell>
        <mxCell id="iPAJIp2zuQb5tWjRLMaW-51" value="" style="endArrow=none;html=1;rounded=0;exitX=1;exitY=0.5;exitDx=0;exitDy=0;entryX=0;entryY=0.5;entryDx=0;entryDy=0;" parent="1" source="iPAJIp2zuQb5tWjRLMaW-3" target="iPAJIp2zuQb5tWjRLMaW-49" edge="1">
          <mxGeometry relative="1" as="geometry">
            <mxPoint x="989" y="978" as="sourcePoint" />
            <mxPoint x="1149" y="978" as="targetPoint" />
          </mxGeometry>
        </mxCell>
        <mxCell id="iPAJIp2zuQb5tWjRLMaW-52" value="N" style="resizable=0;html=1;whiteSpace=wrap;align=right;verticalAlign=bottom;" parent="iPAJIp2zuQb5tWjRLMaW-51" connectable="0" vertex="1">
          <mxGeometry x="1" relative="1" as="geometry" />
        </mxCell>
        <mxCell id="iPAJIp2zuQb5tWjRLMaW-53" value="" style="endArrow=none;html=1;rounded=0;" parent="1" target="iPAJIp2zuQb5tWjRLMaW-49" edge="1">
          <mxGeometry relative="1" as="geometry">
            <mxPoint x="1229" y="841" as="sourcePoint" />
            <mxPoint x="1339" y="868" as="targetPoint" />
          </mxGeometry>
        </mxCell>
        <mxCell id="iPAJIp2zuQb5tWjRLMaW-54" value="N" style="resizable=0;html=1;whiteSpace=wrap;align=right;verticalAlign=bottom;" parent="iPAJIp2zuQb5tWjRLMaW-53" connectable="0" vertex="1">
          <mxGeometry x="1" relative="1" as="geometry" />
        </mxCell>
        <mxCell id="iPAJIp2zuQb5tWjRLMaW-55" value="" style="endArrow=none;html=1;rounded=0;exitX=1;exitY=0.5;exitDx=0;exitDy=0;entryX=0;entryY=0.5;entryDx=0;entryDy=0;" parent="1" source="iPAJIp2zuQb5tWjRLMaW-4" target="iPAJIp2zuQb5tWjRLMaW-50" edge="1">
          <mxGeometry relative="1" as="geometry">
            <mxPoint x="979" y="718" as="sourcePoint" />
            <mxPoint x="1139" y="718" as="targetPoint" />
          </mxGeometry>
        </mxCell>
        <mxCell id="iPAJIp2zuQb5tWjRLMaW-56" value="1" style="resizable=0;html=1;whiteSpace=wrap;align=right;verticalAlign=bottom;" parent="iPAJIp2zuQb5tWjRLMaW-55" connectable="0" vertex="1">
          <mxGeometry x="1" relative="1" as="geometry" />
        </mxCell>
        <mxCell id="iPAJIp2zuQb5tWjRLMaW-57" value="" style="endArrow=none;html=1;rounded=0;exitX=0.5;exitY=0;exitDx=0;exitDy=0;entryX=0.5;entryY=1;entryDx=0;entryDy=0;" parent="1" source="iPAJIp2zuQb5tWjRLMaW-5" target="iPAJIp2zuQb5tWjRLMaW-50" edge="1">
          <mxGeometry relative="1" as="geometry">
            <mxPoint x="1309" y="738" as="sourcePoint" />
            <mxPoint x="1349" y="698" as="targetPoint" />
          </mxGeometry>
        </mxCell>
        <mxCell id="iPAJIp2zuQb5tWjRLMaW-58" value="N" style="resizable=0;html=1;whiteSpace=wrap;align=right;verticalAlign=bottom;" parent="iPAJIp2zuQb5tWjRLMaW-57" connectable="0" vertex="1">
          <mxGeometry x="1" relative="1" as="geometry" />
        </mxCell>
        <mxCell id="iPAJIp2zuQb5tWjRLMaW-59" value="" style="endArrow=none;html=1;rounded=0;exitX=0.399;exitY=1.041;exitDx=0;exitDy=0;exitPerimeter=0;entryX=0.5;entryY=0;entryDx=0;entryDy=0;" parent="1" source="eoBU5oEmDof-OM64dEQ1-1" target="iPAJIp2zuQb5tWjRLMaW-13" edge="1">
          <mxGeometry relative="1" as="geometry">
            <mxPoint x="369" y="488" as="sourcePoint" />
            <mxPoint x="529" y="488" as="targetPoint" />
          </mxGeometry>
        </mxCell>
        <mxCell id="iPAJIp2zuQb5tWjRLMaW-60" value="1" style="resizable=0;html=1;whiteSpace=wrap;align=right;verticalAlign=bottom;" parent="iPAJIp2zuQb5tWjRLMaW-59" connectable="0" vertex="1">
          <mxGeometry x="1" relative="1" as="geometry" />
        </mxCell>
        <mxCell id="iPAJIp2zuQb5tWjRLMaW-74" value="professor-course" style="shape=table;startSize=30;container=1;collapsible=1;childLayout=tableLayout;fixedRows=1;rowLines=0;fontStyle=1;align=center;resizeLast=1;html=1;whiteSpace=wrap;" parent="1" vertex="1">
          <mxGeometry x="534" y="1187" width="180" height="150" as="geometry" />
        </mxCell>
        <mxCell id="iPAJIp2zuQb5tWjRLMaW-75" value="" style="shape=tableRow;horizontal=0;startSize=0;swimlaneHead=0;swimlaneBody=0;fillColor=none;collapsible=0;dropTarget=0;points=[[0,0.5],[1,0.5]];portConstraint=eastwest;top=0;left=0;right=0;bottom=0;html=1;" parent="iPAJIp2zuQb5tWjRLMaW-74" vertex="1">
          <mxGeometry y="30" width="180" height="30" as="geometry" />
        </mxCell>
        <mxCell id="iPAJIp2zuQb5tWjRLMaW-76" value=",FK1" style="shape=partialRectangle;connectable=0;fillColor=none;top=0;left=0;bottom=0;right=0;fontStyle=1;overflow=hidden;html=1;whiteSpace=wrap;" parent="iPAJIp2zuQb5tWjRLMaW-75" vertex="1">
          <mxGeometry width="60" height="30" as="geometry">
            <mxRectangle width="60" height="30" as="alternateBounds" />
          </mxGeometry>
        </mxCell>
        <mxCell id="iPAJIp2zuQb5tWjRLMaW-77" value="prof_id" style="shape=partialRectangle;connectable=0;fillColor=none;top=0;left=0;bottom=0;right=0;align=left;spacingLeft=6;fontStyle=5;overflow=hidden;html=1;whiteSpace=wrap;" parent="iPAJIp2zuQb5tWjRLMaW-75" vertex="1">
          <mxGeometry x="60" width="120" height="30" as="geometry">
            <mxRectangle width="120" height="30" as="alternateBounds" />
          </mxGeometry>
        </mxCell>
        <mxCell id="iPAJIp2zuQb5tWjRLMaW-78" value="" style="shape=tableRow;horizontal=0;startSize=0;swimlaneHead=0;swimlaneBody=0;fillColor=none;collapsible=0;dropTarget=0;points=[[0,0.5],[1,0.5]];portConstraint=eastwest;top=0;left=0;right=0;bottom=1;html=1;" parent="iPAJIp2zuQb5tWjRLMaW-74" vertex="1">
          <mxGeometry y="60" width="180" height="30" as="geometry" />
        </mxCell>
        <mxCell id="iPAJIp2zuQb5tWjRLMaW-79" value="FK2" style="shape=partialRectangle;connectable=0;fillColor=none;top=0;left=0;bottom=0;right=0;fontStyle=1;overflow=hidden;html=1;whiteSpace=wrap;" parent="iPAJIp2zuQb5tWjRLMaW-78" vertex="1">
          <mxGeometry width="60" height="30" as="geometry">
            <mxRectangle width="60" height="30" as="alternateBounds" />
          </mxGeometry>
        </mxCell>
        <mxCell id="iPAJIp2zuQb5tWjRLMaW-80" value="course_id" style="shape=partialRectangle;connectable=0;fillColor=none;top=0;left=0;bottom=0;right=0;align=left;spacingLeft=6;fontStyle=5;overflow=hidden;html=1;whiteSpace=wrap;" parent="iPAJIp2zuQb5tWjRLMaW-78" vertex="1">
          <mxGeometry x="60" width="120" height="30" as="geometry">
            <mxRectangle width="120" height="30" as="alternateBounds" />
          </mxGeometry>
        </mxCell>
        <mxCell id="iPAJIp2zuQb5tWjRLMaW-81" value="" style="shape=tableRow;horizontal=0;startSize=0;swimlaneHead=0;swimlaneBody=0;fillColor=none;collapsible=0;dropTarget=0;points=[[0,0.5],[1,0.5]];portConstraint=eastwest;top=0;left=0;right=0;bottom=0;html=1;" parent="iPAJIp2zuQb5tWjRLMaW-74" vertex="1">
          <mxGeometry y="90" width="180" height="30" as="geometry" />
        </mxCell>
        <mxCell id="iPAJIp2zuQb5tWjRLMaW-82" value="" style="shape=partialRectangle;connectable=0;fillColor=none;top=0;left=0;bottom=0;right=0;editable=1;overflow=hidden;html=1;whiteSpace=wrap;" parent="iPAJIp2zuQb5tWjRLMaW-81" vertex="1">
          <mxGeometry width="60" height="30" as="geometry">
            <mxRectangle width="60" height="30" as="alternateBounds" />
          </mxGeometry>
        </mxCell>
        <mxCell id="iPAJIp2zuQb5tWjRLMaW-83" value="" style="shape=partialRectangle;connectable=0;fillColor=none;top=0;left=0;bottom=0;right=0;align=left;spacingLeft=6;overflow=hidden;html=1;whiteSpace=wrap;" parent="iPAJIp2zuQb5tWjRLMaW-81" vertex="1">
          <mxGeometry x="60" width="120" height="30" as="geometry">
            <mxRectangle width="120" height="30" as="alternateBounds" />
          </mxGeometry>
        </mxCell>
        <mxCell id="iPAJIp2zuQb5tWjRLMaW-84" value="" style="shape=tableRow;horizontal=0;startSize=0;swimlaneHead=0;swimlaneBody=0;fillColor=none;collapsible=0;dropTarget=0;points=[[0,0.5],[1,0.5]];portConstraint=eastwest;top=0;left=0;right=0;bottom=0;html=1;" parent="iPAJIp2zuQb5tWjRLMaW-74" vertex="1">
          <mxGeometry y="120" width="180" height="30" as="geometry" />
        </mxCell>
        <mxCell id="iPAJIp2zuQb5tWjRLMaW-85" value="" style="shape=partialRectangle;connectable=0;fillColor=none;top=0;left=0;bottom=0;right=0;editable=1;overflow=hidden;html=1;whiteSpace=wrap;" parent="iPAJIp2zuQb5tWjRLMaW-84" vertex="1">
          <mxGeometry width="60" height="30" as="geometry">
            <mxRectangle width="60" height="30" as="alternateBounds" />
          </mxGeometry>
        </mxCell>
        <mxCell id="iPAJIp2zuQb5tWjRLMaW-86" value="" style="shape=partialRectangle;connectable=0;fillColor=none;top=0;left=0;bottom=0;right=0;align=left;spacingLeft=6;overflow=hidden;html=1;whiteSpace=wrap;" parent="iPAJIp2zuQb5tWjRLMaW-84" vertex="1">
          <mxGeometry x="60" width="120" height="30" as="geometry">
            <mxRectangle width="120" height="30" as="alternateBounds" />
          </mxGeometry>
        </mxCell>
        <mxCell id="iPAJIp2zuQb5tWjRLMaW-87" value="student-course" style="shape=table;startSize=30;container=1;collapsible=1;childLayout=tableLayout;fixedRows=1;rowLines=0;fontStyle=1;align=center;resizeLast=1;html=1;whiteSpace=wrap;" parent="1" vertex="1">
          <mxGeometry x="849" y="1187" width="180" height="150" as="geometry" />
        </mxCell>
        <mxCell id="iPAJIp2zuQb5tWjRLMaW-88" value="" style="shape=tableRow;horizontal=0;startSize=0;swimlaneHead=0;swimlaneBody=0;fillColor=none;collapsible=0;dropTarget=0;points=[[0,0.5],[1,0.5]];portConstraint=eastwest;top=0;left=0;right=0;bottom=0;html=1;" parent="iPAJIp2zuQb5tWjRLMaW-87" vertex="1">
          <mxGeometry y="30" width="180" height="30" as="geometry" />
        </mxCell>
        <mxCell id="iPAJIp2zuQb5tWjRLMaW-89" value="FK1" style="shape=partialRectangle;connectable=0;fillColor=none;top=0;left=0;bottom=0;right=0;fontStyle=1;overflow=hidden;html=1;whiteSpace=wrap;" parent="iPAJIp2zuQb5tWjRLMaW-88" vertex="1">
          <mxGeometry width="60" height="30" as="geometry">
            <mxRectangle width="60" height="30" as="alternateBounds" />
          </mxGeometry>
        </mxCell>
        <mxCell id="iPAJIp2zuQb5tWjRLMaW-90" value="std_id" style="shape=partialRectangle;connectable=0;fillColor=none;top=0;left=0;bottom=0;right=0;align=left;spacingLeft=6;fontStyle=5;overflow=hidden;html=1;whiteSpace=wrap;" parent="iPAJIp2zuQb5tWjRLMaW-88" vertex="1">
          <mxGeometry x="60" width="120" height="30" as="geometry">
            <mxRectangle width="120" height="30" as="alternateBounds" />
          </mxGeometry>
        </mxCell>
        <mxCell id="iPAJIp2zuQb5tWjRLMaW-91" value="" style="shape=tableRow;horizontal=0;startSize=0;swimlaneHead=0;swimlaneBody=0;fillColor=none;collapsible=0;dropTarget=0;points=[[0,0.5],[1,0.5]];portConstraint=eastwest;top=0;left=0;right=0;bottom=1;html=1;" parent="iPAJIp2zuQb5tWjRLMaW-87" vertex="1">
          <mxGeometry y="60" width="180" height="30" as="geometry" />
        </mxCell>
        <mxCell id="iPAJIp2zuQb5tWjRLMaW-92" value="FK2" style="shape=partialRectangle;connectable=0;fillColor=none;top=0;left=0;bottom=0;right=0;fontStyle=1;overflow=hidden;html=1;whiteSpace=wrap;" parent="iPAJIp2zuQb5tWjRLMaW-91" vertex="1">
          <mxGeometry width="60" height="30" as="geometry">
            <mxRectangle width="60" height="30" as="alternateBounds" />
          </mxGeometry>
        </mxCell>
        <mxCell id="iPAJIp2zuQb5tWjRLMaW-93" value="course_id" style="shape=partialRectangle;connectable=0;fillColor=none;top=0;left=0;bottom=0;right=0;align=left;spacingLeft=6;fontStyle=5;overflow=hidden;html=1;whiteSpace=wrap;" parent="iPAJIp2zuQb5tWjRLMaW-91" vertex="1">
          <mxGeometry x="60" width="120" height="30" as="geometry">
            <mxRectangle width="120" height="30" as="alternateBounds" />
          </mxGeometry>
        </mxCell>
        <mxCell id="iPAJIp2zuQb5tWjRLMaW-94" value="" style="shape=tableRow;horizontal=0;startSize=0;swimlaneHead=0;swimlaneBody=0;fillColor=none;collapsible=0;dropTarget=0;points=[[0,0.5],[1,0.5]];portConstraint=eastwest;top=0;left=0;right=0;bottom=0;html=1;" parent="iPAJIp2zuQb5tWjRLMaW-87" vertex="1">
          <mxGeometry y="90" width="180" height="30" as="geometry" />
        </mxCell>
        <mxCell id="iPAJIp2zuQb5tWjRLMaW-95" value="" style="shape=partialRectangle;connectable=0;fillColor=none;top=0;left=0;bottom=0;right=0;editable=1;overflow=hidden;html=1;whiteSpace=wrap;" parent="iPAJIp2zuQb5tWjRLMaW-94" vertex="1">
          <mxGeometry width="60" height="30" as="geometry">
            <mxRectangle width="60" height="30" as="alternateBounds" />
          </mxGeometry>
        </mxCell>
        <mxCell id="iPAJIp2zuQb5tWjRLMaW-96" value="enrollment_term" style="shape=partialRectangle;connectable=0;fillColor=none;top=0;left=0;bottom=0;right=0;align=left;spacingLeft=6;overflow=hidden;html=1;whiteSpace=wrap;" parent="iPAJIp2zuQb5tWjRLMaW-94" vertex="1">
          <mxGeometry x="60" width="120" height="30" as="geometry">
            <mxRectangle width="120" height="30" as="alternateBounds" />
          </mxGeometry>
        </mxCell>
        <mxCell id="iPAJIp2zuQb5tWjRLMaW-97" value="" style="shape=tableRow;horizontal=0;startSize=0;swimlaneHead=0;swimlaneBody=0;fillColor=none;collapsible=0;dropTarget=0;points=[[0,0.5],[1,0.5]];portConstraint=eastwest;top=0;left=0;right=0;bottom=0;html=1;" parent="iPAJIp2zuQb5tWjRLMaW-87" vertex="1">
          <mxGeometry y="120" width="180" height="30" as="geometry" />
        </mxCell>
        <mxCell id="iPAJIp2zuQb5tWjRLMaW-98" value="" style="shape=partialRectangle;connectable=0;fillColor=none;top=0;left=0;bottom=0;right=0;editable=1;overflow=hidden;html=1;whiteSpace=wrap;" parent="iPAJIp2zuQb5tWjRLMaW-97" vertex="1">
          <mxGeometry width="60" height="30" as="geometry">
            <mxRectangle width="60" height="30" as="alternateBounds" />
          </mxGeometry>
        </mxCell>
        <mxCell id="iPAJIp2zuQb5tWjRLMaW-99" value="degree" style="shape=partialRectangle;connectable=0;fillColor=none;top=0;left=0;bottom=0;right=0;align=left;spacingLeft=6;overflow=hidden;html=1;whiteSpace=wrap;" parent="iPAJIp2zuQb5tWjRLMaW-97" vertex="1">
          <mxGeometry x="60" width="120" height="30" as="geometry">
            <mxRectangle width="120" height="30" as="alternateBounds" />
          </mxGeometry>
        </mxCell>
        <mxCell id="iPAJIp2zuQb5tWjRLMaW-113" value="student" style="shape=table;startSize=30;container=1;collapsible=1;childLayout=tableLayout;fixedRows=1;rowLines=0;fontStyle=1;align=center;resizeLast=1;html=1;whiteSpace=wrap;" parent="1" vertex="1">
          <mxGeometry x="1139" y="1187" width="180" height="150" as="geometry" />
        </mxCell>
        <mxCell id="iPAJIp2zuQb5tWjRLMaW-114" value="" style="shape=tableRow;horizontal=0;startSize=0;swimlaneHead=0;swimlaneBody=0;fillColor=none;collapsible=0;dropTarget=0;points=[[0,0.5],[1,0.5]];portConstraint=eastwest;top=0;left=0;right=0;bottom=0;html=1;" parent="iPAJIp2zuQb5tWjRLMaW-113" vertex="1">
          <mxGeometry y="30" width="180" height="30" as="geometry" />
        </mxCell>
        <mxCell id="iPAJIp2zuQb5tWjRLMaW-115" value="PK" style="shape=partialRectangle;connectable=0;fillColor=none;top=0;left=0;bottom=0;right=0;fontStyle=1;overflow=hidden;html=1;whiteSpace=wrap;" parent="iPAJIp2zuQb5tWjRLMaW-114" vertex="1">
          <mxGeometry width="60" height="30" as="geometry">
            <mxRectangle width="60" height="30" as="alternateBounds" />
          </mxGeometry>
        </mxCell>
        <mxCell id="iPAJIp2zuQb5tWjRLMaW-116" value="id" style="shape=partialRectangle;connectable=0;fillColor=none;top=0;left=0;bottom=0;right=0;align=left;spacingLeft=6;fontStyle=5;overflow=hidden;html=1;whiteSpace=wrap;" parent="iPAJIp2zuQb5tWjRLMaW-114" vertex="1">
          <mxGeometry x="60" width="120" height="30" as="geometry">
            <mxRectangle width="120" height="30" as="alternateBounds" />
          </mxGeometry>
        </mxCell>
        <mxCell id="iPAJIp2zuQb5tWjRLMaW-117" value="" style="shape=tableRow;horizontal=0;startSize=0;swimlaneHead=0;swimlaneBody=0;fillColor=none;collapsible=0;dropTarget=0;points=[[0,0.5],[1,0.5]];portConstraint=eastwest;top=0;left=0;right=0;bottom=1;html=1;" parent="iPAJIp2zuQb5tWjRLMaW-113" vertex="1">
          <mxGeometry y="60" width="180" height="30" as="geometry" />
        </mxCell>
        <mxCell id="iPAJIp2zuQb5tWjRLMaW-118" value="FK" style="shape=partialRectangle;connectable=0;fillColor=none;top=0;left=0;bottom=0;right=0;fontStyle=1;overflow=hidden;html=1;whiteSpace=wrap;" parent="iPAJIp2zuQb5tWjRLMaW-117" vertex="1">
          <mxGeometry width="60" height="30" as="geometry">
            <mxRectangle width="60" height="30" as="alternateBounds" />
          </mxGeometry>
        </mxCell>
        <mxCell id="iPAJIp2zuQb5tWjRLMaW-119" value="advisor_id" style="shape=partialRectangle;connectable=0;fillColor=none;top=0;left=0;bottom=0;right=0;align=left;spacingLeft=6;fontStyle=5;overflow=hidden;html=1;whiteSpace=wrap;" parent="iPAJIp2zuQb5tWjRLMaW-117" vertex="1">
          <mxGeometry x="60" width="120" height="30" as="geometry">
            <mxRectangle width="120" height="30" as="alternateBounds" />
          </mxGeometry>
        </mxCell>
        <mxCell id="iPAJIp2zuQb5tWjRLMaW-120" value="" style="shape=tableRow;horizontal=0;startSize=0;swimlaneHead=0;swimlaneBody=0;fillColor=none;collapsible=0;dropTarget=0;points=[[0,0.5],[1,0.5]];portConstraint=eastwest;top=0;left=0;right=0;bottom=0;html=1;" parent="iPAJIp2zuQb5tWjRLMaW-113" vertex="1">
          <mxGeometry y="90" width="180" height="30" as="geometry" />
        </mxCell>
        <mxCell id="iPAJIp2zuQb5tWjRLMaW-121" value="" style="shape=partialRectangle;connectable=0;fillColor=none;top=0;left=0;bottom=0;right=0;editable=1;overflow=hidden;html=1;whiteSpace=wrap;" parent="iPAJIp2zuQb5tWjRLMaW-120" vertex="1">
          <mxGeometry width="60" height="30" as="geometry">
            <mxRectangle width="60" height="30" as="alternateBounds" />
          </mxGeometry>
        </mxCell>
        <mxCell id="iPAJIp2zuQb5tWjRLMaW-122" value="name" style="shape=partialRectangle;connectable=0;fillColor=none;top=0;left=0;bottom=0;right=0;align=left;spacingLeft=6;overflow=hidden;html=1;whiteSpace=wrap;" parent="iPAJIp2zuQb5tWjRLMaW-120" vertex="1">
          <mxGeometry x="60" width="120" height="30" as="geometry">
            <mxRectangle width="120" height="30" as="alternateBounds" />
          </mxGeometry>
        </mxCell>
        <mxCell id="iPAJIp2zuQb5tWjRLMaW-123" value="" style="shape=tableRow;horizontal=0;startSize=0;swimlaneHead=0;swimlaneBody=0;fillColor=none;collapsible=0;dropTarget=0;points=[[0,0.5],[1,0.5]];portConstraint=eastwest;top=0;left=0;right=0;bottom=0;html=1;" parent="iPAJIp2zuQb5tWjRLMaW-113" vertex="1">
          <mxGeometry y="120" width="180" height="30" as="geometry" />
        </mxCell>
        <mxCell id="iPAJIp2zuQb5tWjRLMaW-124" value="" style="shape=partialRectangle;connectable=0;fillColor=none;top=0;left=0;bottom=0;right=0;editable=1;overflow=hidden;html=1;whiteSpace=wrap;" parent="iPAJIp2zuQb5tWjRLMaW-123" vertex="1">
          <mxGeometry width="60" height="30" as="geometry">
            <mxRectangle width="60" height="30" as="alternateBounds" />
          </mxGeometry>
        </mxCell>
        <mxCell id="iPAJIp2zuQb5tWjRLMaW-125" value="age" style="shape=partialRectangle;connectable=0;fillColor=none;top=0;left=0;bottom=0;right=0;align=left;spacingLeft=6;overflow=hidden;html=1;whiteSpace=wrap;" parent="iPAJIp2zuQb5tWjRLMaW-123" vertex="1">
          <mxGeometry x="60" width="120" height="30" as="geometry">
            <mxRectangle width="120" height="30" as="alternateBounds" />
          </mxGeometry>
        </mxCell>
        <mxCell id="iPAJIp2zuQb5tWjRLMaW-126" value="" style="endArrow=none;html=1;rounded=0;exitX=0.441;exitY=1.065;exitDx=0;exitDy=0;exitPerimeter=0;entryX=0.5;entryY=0;entryDx=0;entryDy=0;" parent="1" source="iPAJIp2zuQb5tWjRLMaW-2" target="iPAJIp2zuQb5tWjRLMaW-18" edge="1">
          <mxGeometry relative="1" as="geometry">
            <mxPoint x="299" y="838" as="sourcePoint" />
            <mxPoint x="459" y="838" as="targetPoint" />
          </mxGeometry>
        </mxCell>
        <mxCell id="iPAJIp2zuQb5tWjRLMaW-127" value="1" style="resizable=0;html=1;whiteSpace=wrap;align=right;verticalAlign=bottom;" parent="iPAJIp2zuQb5tWjRLMaW-126" connectable="0" vertex="1">
          <mxGeometry x="1" relative="1" as="geometry" />
        </mxCell>
        <mxCell id="iPAJIp2zuQb5tWjRLMaW-128" value="Course" style="shape=table;startSize=30;container=1;collapsible=1;childLayout=tableLayout;fixedRows=1;rowLines=0;fontStyle=1;align=center;resizeLast=1;html=1;whiteSpace=wrap;" parent="1" vertex="1">
          <mxGeometry x="209" y="1187" width="180" height="210" as="geometry" />
        </mxCell>
        <mxCell id="iPAJIp2zuQb5tWjRLMaW-129" value="" style="shape=tableRow;horizontal=0;startSize=0;swimlaneHead=0;swimlaneBody=0;fillColor=none;collapsible=0;dropTarget=0;points=[[0,0.5],[1,0.5]];portConstraint=eastwest;top=0;left=0;right=0;bottom=0;html=1;" parent="iPAJIp2zuQb5tWjRLMaW-128" vertex="1">
          <mxGeometry y="30" width="180" height="30" as="geometry" />
        </mxCell>
        <mxCell id="iPAJIp2zuQb5tWjRLMaW-130" value="PK" style="shape=partialRectangle;connectable=0;fillColor=none;top=0;left=0;bottom=0;right=0;fontStyle=1;overflow=hidden;html=1;whiteSpace=wrap;" parent="iPAJIp2zuQb5tWjRLMaW-129" vertex="1">
          <mxGeometry width="60" height="30" as="geometry">
            <mxRectangle width="60" height="30" as="alternateBounds" />
          </mxGeometry>
        </mxCell>
        <mxCell id="iPAJIp2zuQb5tWjRLMaW-131" value="id" style="shape=partialRectangle;connectable=0;fillColor=none;top=0;left=0;bottom=0;right=0;align=left;spacingLeft=6;fontStyle=5;overflow=hidden;html=1;whiteSpace=wrap;" parent="iPAJIp2zuQb5tWjRLMaW-129" vertex="1">
          <mxGeometry x="60" width="120" height="30" as="geometry">
            <mxRectangle width="120" height="30" as="alternateBounds" />
          </mxGeometry>
        </mxCell>
        <mxCell id="iPAJIp2zuQb5tWjRLMaW-132" value="" style="shape=tableRow;horizontal=0;startSize=0;swimlaneHead=0;swimlaneBody=0;fillColor=none;collapsible=0;dropTarget=0;points=[[0,0.5],[1,0.5]];portConstraint=eastwest;top=0;left=0;right=0;bottom=1;html=1;" parent="iPAJIp2zuQb5tWjRLMaW-128" vertex="1">
          <mxGeometry y="60" width="180" height="30" as="geometry" />
        </mxCell>
        <mxCell id="iPAJIp2zuQb5tWjRLMaW-133" value="FK" style="shape=partialRectangle;connectable=0;fillColor=none;top=0;left=0;bottom=0;right=0;fontStyle=1;overflow=hidden;html=1;whiteSpace=wrap;" parent="iPAJIp2zuQb5tWjRLMaW-132" vertex="1">
          <mxGeometry width="60" height="30" as="geometry">
            <mxRectangle width="60" height="30" as="alternateBounds" />
          </mxGeometry>
        </mxCell>
        <mxCell id="iPAJIp2zuQb5tWjRLMaW-134" value="department_id" style="shape=partialRectangle;connectable=0;fillColor=none;top=0;left=0;bottom=0;right=0;align=left;spacingLeft=6;fontStyle=5;overflow=hidden;html=1;whiteSpace=wrap;" parent="iPAJIp2zuQb5tWjRLMaW-132" vertex="1">
          <mxGeometry x="60" width="120" height="30" as="geometry">
            <mxRectangle width="120" height="30" as="alternateBounds" />
          </mxGeometry>
        </mxCell>
        <mxCell id="iPAJIp2zuQb5tWjRLMaW-135" value="" style="shape=tableRow;horizontal=0;startSize=0;swimlaneHead=0;swimlaneBody=0;fillColor=none;collapsible=0;dropTarget=0;points=[[0,0.5],[1,0.5]];portConstraint=eastwest;top=0;left=0;right=0;bottom=0;html=1;" parent="iPAJIp2zuQb5tWjRLMaW-128" vertex="1">
          <mxGeometry y="90" width="180" height="30" as="geometry" />
        </mxCell>
        <mxCell id="iPAJIp2zuQb5tWjRLMaW-136" value="" style="shape=partialRectangle;connectable=0;fillColor=none;top=0;left=0;bottom=0;right=0;editable=1;overflow=hidden;html=1;whiteSpace=wrap;" parent="iPAJIp2zuQb5tWjRLMaW-135" vertex="1">
          <mxGeometry width="60" height="30" as="geometry">
            <mxRectangle width="60" height="30" as="alternateBounds" />
          </mxGeometry>
        </mxCell>
        <mxCell id="iPAJIp2zuQb5tWjRLMaW-137" value="start_date" style="shape=partialRectangle;connectable=0;fillColor=none;top=0;left=0;bottom=0;right=0;align=left;spacingLeft=6;overflow=hidden;html=1;whiteSpace=wrap;" parent="iPAJIp2zuQb5tWjRLMaW-135" vertex="1">
          <mxGeometry x="60" width="120" height="30" as="geometry">
            <mxRectangle width="120" height="30" as="alternateBounds" />
          </mxGeometry>
        </mxCell>
        <mxCell id="iPAJIp2zuQb5tWjRLMaW-138" value="" style="shape=tableRow;horizontal=0;startSize=0;swimlaneHead=0;swimlaneBody=0;fillColor=none;collapsible=0;dropTarget=0;points=[[0,0.5],[1,0.5]];portConstraint=eastwest;top=0;left=0;right=0;bottom=0;html=1;" parent="iPAJIp2zuQb5tWjRLMaW-128" vertex="1">
          <mxGeometry y="120" width="180" height="30" as="geometry" />
        </mxCell>
        <mxCell id="iPAJIp2zuQb5tWjRLMaW-139" value="" style="shape=partialRectangle;connectable=0;fillColor=none;top=0;left=0;bottom=0;right=0;editable=1;overflow=hidden;html=1;whiteSpace=wrap;" parent="iPAJIp2zuQb5tWjRLMaW-138" vertex="1">
          <mxGeometry width="60" height="30" as="geometry">
            <mxRectangle width="60" height="30" as="alternateBounds" />
          </mxGeometry>
        </mxCell>
        <mxCell id="iPAJIp2zuQb5tWjRLMaW-140" value="end_date" style="shape=partialRectangle;connectable=0;fillColor=none;top=0;left=0;bottom=0;right=0;align=left;spacingLeft=6;overflow=hidden;html=1;whiteSpace=wrap;" parent="iPAJIp2zuQb5tWjRLMaW-138" vertex="1">
          <mxGeometry x="60" width="120" height="30" as="geometry">
            <mxRectangle width="120" height="30" as="alternateBounds" />
          </mxGeometry>
        </mxCell>
        <mxCell id="_V5Ea4BD2LlQVcHZgfT1-2" value="" style="shape=tableRow;horizontal=0;startSize=0;swimlaneHead=0;swimlaneBody=0;fillColor=none;collapsible=0;dropTarget=0;points=[[0,0.5],[1,0.5]];portConstraint=eastwest;top=0;left=0;right=0;bottom=0;" vertex="1" parent="iPAJIp2zuQb5tWjRLMaW-128">
          <mxGeometry y="150" width="180" height="30" as="geometry" />
        </mxCell>
        <mxCell id="_V5Ea4BD2LlQVcHZgfT1-3" value="" style="shape=partialRectangle;connectable=0;fillColor=none;top=0;left=0;bottom=0;right=0;editable=1;overflow=hidden;" vertex="1" parent="_V5Ea4BD2LlQVcHZgfT1-2">
          <mxGeometry width="60" height="30" as="geometry">
            <mxRectangle width="60" height="30" as="alternateBounds" />
          </mxGeometry>
        </mxCell>
        <mxCell id="_V5Ea4BD2LlQVcHZgfT1-4" value="name" style="shape=partialRectangle;connectable=0;fillColor=none;top=0;left=0;bottom=0;right=0;align=left;spacingLeft=6;overflow=hidden;" vertex="1" parent="_V5Ea4BD2LlQVcHZgfT1-2">
          <mxGeometry x="60" width="120" height="30" as="geometry">
            <mxRectangle width="120" height="30" as="alternateBounds" />
          </mxGeometry>
        </mxCell>
        <mxCell id="_V5Ea4BD2LlQVcHZgfT1-20" value="" style="shape=tableRow;horizontal=0;startSize=0;swimlaneHead=0;swimlaneBody=0;fillColor=none;collapsible=0;dropTarget=0;points=[[0,0.5],[1,0.5]];portConstraint=eastwest;top=0;left=0;right=0;bottom=0;strokeWidth=1;" vertex="1" parent="iPAJIp2zuQb5tWjRLMaW-128">
          <mxGeometry y="180" width="180" height="30" as="geometry" />
        </mxCell>
        <mxCell id="_V5Ea4BD2LlQVcHZgfT1-21" value="" style="shape=partialRectangle;connectable=0;fillColor=none;top=0;left=0;bottom=0;right=0;editable=1;overflow=hidden;" vertex="1" parent="_V5Ea4BD2LlQVcHZgfT1-20">
          <mxGeometry width="60" height="30" as="geometry">
            <mxRectangle width="60" height="30" as="alternateBounds" />
          </mxGeometry>
        </mxCell>
        <mxCell id="_V5Ea4BD2LlQVcHZgfT1-22" value="duration" style="shape=partialRectangle;connectable=0;fillColor=none;top=0;left=0;bottom=0;right=0;align=left;spacingLeft=6;overflow=hidden;strokeColor=light-dark(#151414, #ededed);strokeWidth=1;" vertex="1" parent="_V5Ea4BD2LlQVcHZgfT1-20">
          <mxGeometry x="60" width="120" height="30" as="geometry">
            <mxRectangle width="120" height="30" as="alternateBounds" />
          </mxGeometry>
        </mxCell>
        <mxCell id="iPAJIp2zuQb5tWjRLMaW-141" value="Department" style="shape=table;startSize=30;container=1;collapsible=1;childLayout=tableLayout;fixedRows=1;rowLines=0;fontStyle=1;align=center;resizeLast=1;html=1;whiteSpace=wrap;" parent="1" vertex="1">
          <mxGeometry x="534" y="1427" width="180" height="150" as="geometry" />
        </mxCell>
        <mxCell id="iPAJIp2zuQb5tWjRLMaW-142" value="" style="shape=tableRow;horizontal=0;startSize=0;swimlaneHead=0;swimlaneBody=0;fillColor=none;collapsible=0;dropTarget=0;points=[[0,0.5],[1,0.5]];portConstraint=eastwest;top=0;left=0;right=0;bottom=0;html=1;" parent="iPAJIp2zuQb5tWjRLMaW-141" vertex="1">
          <mxGeometry y="30" width="180" height="30" as="geometry" />
        </mxCell>
        <mxCell id="iPAJIp2zuQb5tWjRLMaW-143" value="PK" style="shape=partialRectangle;connectable=0;fillColor=none;top=0;left=0;bottom=0;right=0;fontStyle=1;overflow=hidden;html=1;whiteSpace=wrap;" parent="iPAJIp2zuQb5tWjRLMaW-142" vertex="1">
          <mxGeometry width="60" height="30" as="geometry">
            <mxRectangle width="60" height="30" as="alternateBounds" />
          </mxGeometry>
        </mxCell>
        <mxCell id="iPAJIp2zuQb5tWjRLMaW-144" value="id" style="shape=partialRectangle;connectable=0;fillColor=none;top=0;left=0;bottom=0;right=0;align=left;spacingLeft=6;fontStyle=5;overflow=hidden;html=1;whiteSpace=wrap;" parent="iPAJIp2zuQb5tWjRLMaW-142" vertex="1">
          <mxGeometry x="60" width="120" height="30" as="geometry">
            <mxRectangle width="120" height="30" as="alternateBounds" />
          </mxGeometry>
        </mxCell>
        <mxCell id="iPAJIp2zuQb5tWjRLMaW-145" value="" style="shape=tableRow;horizontal=0;startSize=0;swimlaneHead=0;swimlaneBody=0;fillColor=none;collapsible=0;dropTarget=0;points=[[0,0.5],[1,0.5]];portConstraint=eastwest;top=0;left=0;right=0;bottom=1;html=1;" parent="iPAJIp2zuQb5tWjRLMaW-141" vertex="1">
          <mxGeometry y="60" width="180" height="30" as="geometry" />
        </mxCell>
        <mxCell id="iPAJIp2zuQb5tWjRLMaW-146" value="FK" style="shape=partialRectangle;connectable=0;fillColor=none;top=0;left=0;bottom=0;right=0;fontStyle=1;overflow=hidden;html=1;whiteSpace=wrap;" parent="iPAJIp2zuQb5tWjRLMaW-145" vertex="1">
          <mxGeometry width="60" height="30" as="geometry">
            <mxRectangle width="60" height="30" as="alternateBounds" />
          </mxGeometry>
        </mxCell>
        <mxCell id="iPAJIp2zuQb5tWjRLMaW-147" value="faculty_id" style="shape=partialRectangle;connectable=0;fillColor=none;top=0;left=0;bottom=0;right=0;align=left;spacingLeft=6;fontStyle=5;overflow=hidden;html=1;whiteSpace=wrap;" parent="iPAJIp2zuQb5tWjRLMaW-145" vertex="1">
          <mxGeometry x="60" width="120" height="30" as="geometry">
            <mxRectangle width="120" height="30" as="alternateBounds" />
          </mxGeometry>
        </mxCell>
        <mxCell id="iPAJIp2zuQb5tWjRLMaW-148" value="" style="shape=tableRow;horizontal=0;startSize=0;swimlaneHead=0;swimlaneBody=0;fillColor=none;collapsible=0;dropTarget=0;points=[[0,0.5],[1,0.5]];portConstraint=eastwest;top=0;left=0;right=0;bottom=0;html=1;" parent="iPAJIp2zuQb5tWjRLMaW-141" vertex="1">
          <mxGeometry y="90" width="180" height="30" as="geometry" />
        </mxCell>
        <mxCell id="iPAJIp2zuQb5tWjRLMaW-149" value="&lt;b&gt;&lt;font style=&quot;font-size: 11px;&quot;&gt;FK2&lt;/font&gt;&lt;/b&gt;" style="shape=partialRectangle;connectable=0;fillColor=none;top=0;left=0;bottom=0;right=0;editable=1;overflow=hidden;html=1;whiteSpace=wrap;" parent="iPAJIp2zuQb5tWjRLMaW-148" vertex="1">
          <mxGeometry width="60" height="30" as="geometry">
            <mxRectangle width="60" height="30" as="alternateBounds" />
          </mxGeometry>
        </mxCell>
        <mxCell id="iPAJIp2zuQb5tWjRLMaW-150" value="&lt;b&gt;chair_prof_id&lt;/b&gt;" style="shape=partialRectangle;connectable=0;fillColor=none;top=0;left=0;bottom=0;right=0;align=left;spacingLeft=6;overflow=hidden;html=1;whiteSpace=wrap;" parent="iPAJIp2zuQb5tWjRLMaW-148" vertex="1">
          <mxGeometry x="60" width="120" height="30" as="geometry">
            <mxRectangle width="120" height="30" as="alternateBounds" />
          </mxGeometry>
        </mxCell>
        <mxCell id="iPAJIp2zuQb5tWjRLMaW-151" value="" style="shape=tableRow;horizontal=0;startSize=0;swimlaneHead=0;swimlaneBody=0;fillColor=none;collapsible=0;dropTarget=0;points=[[0,0.5],[1,0.5]];portConstraint=eastwest;top=0;left=0;right=0;bottom=0;html=1;" parent="iPAJIp2zuQb5tWjRLMaW-141" vertex="1">
          <mxGeometry y="120" width="180" height="30" as="geometry" />
        </mxCell>
        <mxCell id="iPAJIp2zuQb5tWjRLMaW-152" value="" style="shape=partialRectangle;connectable=0;fillColor=none;top=0;left=0;bottom=0;right=0;editable=1;overflow=hidden;html=1;whiteSpace=wrap;" parent="iPAJIp2zuQb5tWjRLMaW-151" vertex="1">
          <mxGeometry width="60" height="30" as="geometry">
            <mxRectangle width="60" height="30" as="alternateBounds" />
          </mxGeometry>
        </mxCell>
        <mxCell id="iPAJIp2zuQb5tWjRLMaW-153" value="name" style="shape=partialRectangle;connectable=0;fillColor=none;top=0;left=0;bottom=0;right=0;align=left;spacingLeft=6;overflow=hidden;html=1;whiteSpace=wrap;" parent="iPAJIp2zuQb5tWjRLMaW-151" vertex="1">
          <mxGeometry x="60" width="120" height="30" as="geometry">
            <mxRectangle width="120" height="30" as="alternateBounds" />
          </mxGeometry>
        </mxCell>
        <mxCell id="iPAJIp2zuQb5tWjRLMaW-154" value="Professor" style="shape=table;startSize=30;container=1;collapsible=1;childLayout=tableLayout;fixedRows=1;rowLines=0;fontStyle=1;align=center;resizeLast=1;html=1;whiteSpace=wrap;" parent="1" vertex="1">
          <mxGeometry x="859" y="1427" width="180" height="150" as="geometry" />
        </mxCell>
        <mxCell id="iPAJIp2zuQb5tWjRLMaW-155" value="" style="shape=tableRow;horizontal=0;startSize=0;swimlaneHead=0;swimlaneBody=0;fillColor=none;collapsible=0;dropTarget=0;points=[[0,0.5],[1,0.5]];portConstraint=eastwest;top=0;left=0;right=0;bottom=0;html=1;" parent="iPAJIp2zuQb5tWjRLMaW-154" vertex="1">
          <mxGeometry y="30" width="180" height="30" as="geometry" />
        </mxCell>
        <mxCell id="iPAJIp2zuQb5tWjRLMaW-156" value="PK" style="shape=partialRectangle;connectable=0;fillColor=none;top=0;left=0;bottom=0;right=0;fontStyle=1;overflow=hidden;html=1;whiteSpace=wrap;" parent="iPAJIp2zuQb5tWjRLMaW-155" vertex="1">
          <mxGeometry width="60" height="30" as="geometry">
            <mxRectangle width="60" height="30" as="alternateBounds" />
          </mxGeometry>
        </mxCell>
        <mxCell id="iPAJIp2zuQb5tWjRLMaW-157" value="id" style="shape=partialRectangle;connectable=0;fillColor=none;top=0;left=0;bottom=0;right=0;align=left;spacingLeft=6;fontStyle=5;overflow=hidden;html=1;whiteSpace=wrap;" parent="iPAJIp2zuQb5tWjRLMaW-155" vertex="1">
          <mxGeometry x="60" width="120" height="30" as="geometry">
            <mxRectangle width="120" height="30" as="alternateBounds" />
          </mxGeometry>
        </mxCell>
        <mxCell id="iPAJIp2zuQb5tWjRLMaW-158" value="" style="shape=tableRow;horizontal=0;startSize=0;swimlaneHead=0;swimlaneBody=0;fillColor=none;collapsible=0;dropTarget=0;points=[[0,0.5],[1,0.5]];portConstraint=eastwest;top=0;left=0;right=0;bottom=1;html=1;" parent="iPAJIp2zuQb5tWjRLMaW-154" vertex="1">
          <mxGeometry y="60" width="180" height="30" as="geometry" />
        </mxCell>
        <mxCell id="iPAJIp2zuQb5tWjRLMaW-159" value="FK" style="shape=partialRectangle;connectable=0;fillColor=none;top=0;left=0;bottom=0;right=0;fontStyle=1;overflow=hidden;html=1;whiteSpace=wrap;" parent="iPAJIp2zuQb5tWjRLMaW-158" vertex="1">
          <mxGeometry width="60" height="30" as="geometry">
            <mxRectangle width="60" height="30" as="alternateBounds" />
          </mxGeometry>
        </mxCell>
        <mxCell id="iPAJIp2zuQb5tWjRLMaW-160" value="department_id" style="shape=partialRectangle;connectable=0;fillColor=none;top=0;left=0;bottom=0;right=0;align=left;spacingLeft=6;fontStyle=5;overflow=hidden;html=1;whiteSpace=wrap;" parent="iPAJIp2zuQb5tWjRLMaW-158" vertex="1">
          <mxGeometry x="60" width="120" height="30" as="geometry">
            <mxRectangle width="120" height="30" as="alternateBounds" />
          </mxGeometry>
        </mxCell>
        <mxCell id="iPAJIp2zuQb5tWjRLMaW-161" value="" style="shape=tableRow;horizontal=0;startSize=0;swimlaneHead=0;swimlaneBody=0;fillColor=none;collapsible=0;dropTarget=0;points=[[0,0.5],[1,0.5]];portConstraint=eastwest;top=0;left=0;right=0;bottom=0;html=1;" parent="iPAJIp2zuQb5tWjRLMaW-154" vertex="1">
          <mxGeometry y="90" width="180" height="30" as="geometry" />
        </mxCell>
        <mxCell id="iPAJIp2zuQb5tWjRLMaW-162" value="" style="shape=partialRectangle;connectable=0;fillColor=none;top=0;left=0;bottom=0;right=0;editable=1;overflow=hidden;html=1;whiteSpace=wrap;" parent="iPAJIp2zuQb5tWjRLMaW-161" vertex="1">
          <mxGeometry width="60" height="30" as="geometry">
            <mxRectangle width="60" height="30" as="alternateBounds" />
          </mxGeometry>
        </mxCell>
        <mxCell id="iPAJIp2zuQb5tWjRLMaW-163" value="name" style="shape=partialRectangle;connectable=0;fillColor=none;top=0;left=0;bottom=0;right=0;align=left;spacingLeft=6;overflow=hidden;html=1;whiteSpace=wrap;" parent="iPAJIp2zuQb5tWjRLMaW-161" vertex="1">
          <mxGeometry x="60" width="120" height="30" as="geometry">
            <mxRectangle width="120" height="30" as="alternateBounds" />
          </mxGeometry>
        </mxCell>
        <mxCell id="iPAJIp2zuQb5tWjRLMaW-164" value="" style="shape=tableRow;horizontal=0;startSize=0;swimlaneHead=0;swimlaneBody=0;fillColor=none;collapsible=0;dropTarget=0;points=[[0,0.5],[1,0.5]];portConstraint=eastwest;top=0;left=0;right=0;bottom=0;html=1;" parent="iPAJIp2zuQb5tWjRLMaW-154" vertex="1">
          <mxGeometry y="120" width="180" height="30" as="geometry" />
        </mxCell>
        <mxCell id="iPAJIp2zuQb5tWjRLMaW-165" value="" style="shape=partialRectangle;connectable=0;fillColor=none;top=0;left=0;bottom=0;right=0;editable=1;overflow=hidden;html=1;whiteSpace=wrap;" parent="iPAJIp2zuQb5tWjRLMaW-164" vertex="1">
          <mxGeometry width="60" height="30" as="geometry">
            <mxRectangle width="60" height="30" as="alternateBounds" />
          </mxGeometry>
        </mxCell>
        <mxCell id="iPAJIp2zuQb5tWjRLMaW-166" value="phone_num" style="shape=partialRectangle;connectable=0;fillColor=none;top=0;left=0;bottom=0;right=0;align=left;spacingLeft=6;overflow=hidden;html=1;whiteSpace=wrap;" parent="iPAJIp2zuQb5tWjRLMaW-164" vertex="1">
          <mxGeometry x="60" width="120" height="30" as="geometry">
            <mxRectangle width="120" height="30" as="alternateBounds" />
          </mxGeometry>
        </mxCell>
        <mxCell id="_V5Ea4BD2LlQVcHZgfT1-8" value="start_date" style="ellipse;whiteSpace=wrap;html=1;align=center;" vertex="1" parent="1">
          <mxGeometry x="699" y="1027" width="100" height="40" as="geometry" />
        </mxCell>
        <mxCell id="_V5Ea4BD2LlQVcHZgfT1-9" value="ID" style="ellipse;whiteSpace=wrap;html=1;align=center;fontStyle=4;" vertex="1" parent="1">
          <mxGeometry x="837" y="1037" width="50" height="40" as="geometry" />
        </mxCell>
        <mxCell id="_V5Ea4BD2LlQVcHZgfT1-10" value="end_date" style="ellipse;whiteSpace=wrap;html=1;align=center;" vertex="1" parent="1">
          <mxGeometry x="922" y="1027" width="90" height="40" as="geometry" />
        </mxCell>
        <mxCell id="_V5Ea4BD2LlQVcHZgfT1-11" value="name" style="ellipse;whiteSpace=wrap;html=1;align=center;" vertex="1" parent="1">
          <mxGeometry x="679" y="967" width="60" height="40" as="geometry" />
        </mxCell>
        <mxCell id="_V5Ea4BD2LlQVcHZgfT1-12" value="duration" style="ellipse;whiteSpace=wrap;html=1;align=center;dashed=1;" vertex="1" parent="1">
          <mxGeometry x="959" y="967" width="70" height="40" as="geometry" />
        </mxCell>
        <mxCell id="_V5Ea4BD2LlQVcHZgfT1-15" style="edgeStyle=orthogonalEdgeStyle;rounded=0;orthogonalLoop=1;jettySize=auto;html=1;exitX=0.093;exitY=0.983;exitDx=0;exitDy=0;entryX=0.8;entryY=0;entryDx=0;entryDy=0;entryPerimeter=0;exitPerimeter=0;" edge="1" parent="1" source="iPAJIp2zuQb5tWjRLMaW-3" target="_V5Ea4BD2LlQVcHZgfT1-8">
          <mxGeometry relative="1" as="geometry">
            <mxPoint x="799" y="984" as="sourcePoint" />
          </mxGeometry>
        </mxCell>
        <mxCell id="_V5Ea4BD2LlQVcHZgfT1-25" value="enrollement_term" style="ellipse;whiteSpace=wrap;html=1;align=center;" vertex="1" parent="1">
          <mxGeometry x="1319" y="876" width="110" height="40" as="geometry" />
        </mxCell>
        <mxCell id="_V5Ea4BD2LlQVcHZgfT1-26" value="degree" style="ellipse;whiteSpace=wrap;html=1;align=center;" vertex="1" parent="1">
          <mxGeometry x="1309" y="987" width="75" height="40" as="geometry" />
        </mxCell>
        <mxCell id="_V5Ea4BD2LlQVcHZgfT1-33" value="name" style="ellipse;whiteSpace=wrap;html=1;align=center;" vertex="1" parent="1">
          <mxGeometry x="1069" y="808" width="62" height="40" as="geometry" />
        </mxCell>
        <mxCell id="_V5Ea4BD2LlQVcHZgfT1-34" value="national_id" style="ellipse;whiteSpace=wrap;html=1;align=center;fontStyle=4;" vertex="1" parent="1">
          <mxGeometry x="1339" y="778" width="100" height="40" as="geometry" />
        </mxCell>
        <mxCell id="_V5Ea4BD2LlQVcHZgfT1-35" value="age" style="ellipse;whiteSpace=wrap;html=1;align=center;dashed=1;" vertex="1" parent="1">
          <mxGeometry x="1069" y="738" width="50" height="40" as="geometry" />
        </mxCell>
        <mxCell id="_V5Ea4BD2LlQVcHZgfT1-39" value="&lt;b&gt;ID&lt;/b&gt;" style="ellipse;whiteSpace=wrap;html=1;align=center;fontStyle=4;" vertex="1" parent="1">
          <mxGeometry x="274" y="608" width="50" height="40" as="geometry" />
        </mxCell>
        <mxCell id="_V5Ea4BD2LlQVcHZgfT1-40" value="name" style="ellipse;whiteSpace=wrap;html=1;align=center;" vertex="1" parent="1">
          <mxGeometry x="264" y="718" width="60" height="40" as="geometry" />
        </mxCell>
        <mxCell id="_V5Ea4BD2LlQVcHZgfT1-42" style="edgeStyle=orthogonalEdgeStyle;rounded=0;orthogonalLoop=1;jettySize=auto;html=1;exitX=0;exitY=0.75;exitDx=0;exitDy=0;entryX=0.97;entryY=0.325;entryDx=0;entryDy=0;entryPerimeter=0;" edge="1" parent="1" source="iPAJIp2zuQb5tWjRLMaW-2" target="_V5Ea4BD2LlQVcHZgfT1-40">
          <mxGeometry relative="1" as="geometry" />
        </mxCell>
        <mxCell id="_V5Ea4BD2LlQVcHZgfT1-43" value="&lt;b&gt;ID&lt;/b&gt;" style="ellipse;whiteSpace=wrap;html=1;align=center;fontStyle=4;" vertex="1" parent="1">
          <mxGeometry x="769" y="578" width="50" height="40" as="geometry" />
        </mxCell>
        <mxCell id="_V5Ea4BD2LlQVcHZgfT1-44" value="name" style="ellipse;whiteSpace=wrap;html=1;align=center;" vertex="1" parent="1">
          <mxGeometry x="852" y="558" width="67" height="40" as="geometry" />
        </mxCell>
        <mxCell id="_V5Ea4BD2LlQVcHZgfT1-46" value="phone_num" style="ellipse;shape=doubleEllipse;margin=3;whiteSpace=wrap;html=1;align=center;" vertex="1" parent="1">
          <mxGeometry x="939" y="598" width="100" height="40" as="geometry" />
        </mxCell>
        <mxCell id="_V5Ea4BD2LlQVcHZgfT1-48" style="edgeStyle=orthogonalEdgeStyle;rounded=0;orthogonalLoop=1;jettySize=auto;html=1;exitX=0.25;exitY=0;exitDx=0;exitDy=0;entryX=0.68;entryY=1.045;entryDx=0;entryDy=0;entryPerimeter=0;" edge="1" parent="1" source="iPAJIp2zuQb5tWjRLMaW-4" target="_V5Ea4BD2LlQVcHZgfT1-43">
          <mxGeometry relative="1" as="geometry" />
        </mxCell>
      </root>
    </mxGraphModel>
  </diagram>
</mxfile>
